<svg xmlns="http://www.w3.org/2000/svg" width="14" height="14" viewBox="0 0 14 14">
    <g fill="none" fill-rule="evenodd">
        <g fill="#000" fill-rule="nonzero">
            <g>
                <g>
                    <g>
                        <path d="M7.508 5.444l3.096-3.095c.38-.38.38-.996 0-1.376L9.916.285c-.38-.38-.996-.38-1.376 0L5.444 3.38 2.35.285c-.38-.38-.996-.38-1.376 0L.285.973c-.38.38-.38.996 0 1.376L3.38 5.444.285 8.54c-.38.38-.38.996 0 1.376l.688.688c.38.38.996.38 1.376 0l3.095-3.096 3.096 3.096c.38.38.996.38 1.376 0l.688-.688c.38-.38.38-.996 0-1.376L7.508 5.444z" transform="translate(-1049 -930) translate(543 891) translate(506 39) translate(1.556 1.556)"/>
                    </g>
                </g>
            </g>
        </g>
    </g>
</svg>
